<?xml version="1.0" encoding="iso-8859-1"?>
<!-- Generator: Adobe Illustrator 16.0.0, SVG Export Plug-In . SVG Version: 6.00 Build 0)  -->
<!DOCTYPE svg PUBLIC "-//W3C//DTD SVG 1.1//EN" "http://www.w3.org/Graphics/SVG/1.1/DTD/svg11.dtd">
<svg version="1.1" id="Capa_1" xmlns="http://www.w3.org/2000/svg" xmlns:xlink="http://www.w3.org/1999/xlink" x="0px" y="0px"
	 width="589.05px" height="589.05px" viewBox="0 0 589.05 589.05" style="enable-background:new 0 0 589.05 589.05;"
	 xml:space="preserve">
<g>
	<g id="Layer_1_73_">
		<g>
			<path d="M557.175,196.987c-17.85,0-31.875,14.025-31.875,31.875v80.325h-459V165.112c0-17.85-14.025-31.875-33.15-31.875
				S0,147.263,0,165.112v258.825c0,17.85,14.025,31.875,33.15,31.875s33.15-14.025,33.15-31.875v-36.975h459v36.975
				c0,17.85,14.025,31.875,31.875,31.875c17.851,0,31.875-14.025,31.875-31.875V228.862
				C589.05,211.013,575.025,196.987,557.175,196.987z"/>
			<circle cx="136.425" cy="239.063" r="45.9"/>
			<path d="M238.425,284.963h219.3c22.949,0,40.8-19.125,40.8-40.8c0-22.95-17.851-40.8-40.8-40.8h-219.3
				c-22.95,0-40.8,19.125-40.8,40.8C197.625,265.837,216.75,284.963,238.425,284.963z"/>
		</g>
	</g>
</g>
<g>
</g>
<g>
</g>
<g>
</g>
<g>
</g>
<g>
</g>
<g>
</g>
<g>
</g>
<g>
</g>
<g>
</g>
<g>
</g>
<g>
</g>
<g>
</g>
<g>
</g>
<g>
</g>
<g>
</g>
</svg>
