<?xml version="1.0" encoding="iso-8859-1"?>
<!-- Generator: Adobe Illustrator 16.0.0, SVG Export Plug-In . SVG Version: 6.00 Build 0)  -->
<!DOCTYPE svg PUBLIC "-//W3C//DTD SVG 1.1//EN" "http://www.w3.org/Graphics/SVG/1.1/DTD/svg11.dtd">
<svg version="1.1" id="Capa_1" xmlns="http://www.w3.org/2000/svg" xmlns:xlink="http://www.w3.org/1999/xlink" x="0px" y="0px"
	 width="45.887px" height="45.887px" viewBox="0 0 45.887 45.887" style="enable-background:new 0 0 45.887 45.887;"
	 xml:space="preserve">
<g>
	<g>
		<path d="M22.968,18.499c-1.36,0-2.618,0.436-3.651,1.169c-0.162,0.116-0.266,0.296-0.282,0.495
			c-0.016,0.199,0.055,0.395,0.196,0.535l0.517,0.517c0.229,0.229,0.586,0.263,0.854,0.082c0.677-0.456,1.489-0.724,2.365-0.724
			s1.688,0.268,2.366,0.724c0.268,0.181,0.626,0.146,0.854-0.082l0.518-0.518c0.141-0.14,0.212-0.335,0.196-0.534
			c-0.018-0.198-0.12-0.379-0.282-0.495C25.587,18.935,24.328,18.499,22.968,18.499z"/>
		<path d="M22.968,14.756c-2.425,0-4.684,0.706-6.599,1.912c-0.173,0.109-0.288,0.292-0.311,0.496
			c-0.023,0.205,0.048,0.409,0.193,0.554l0.517,0.518c0.221,0.221,0.563,0.26,0.829,0.099c1.567-0.954,3.406-1.503,5.371-1.503
			c1.964,0,3.803,0.549,5.371,1.503c0.267,0.161,0.608,0.121,0.829-0.099l0.517-0.518c0.146-0.145,0.217-0.348,0.193-0.554
			c-0.023-0.204-0.138-0.387-0.312-0.496C27.652,15.462,25.393,14.756,22.968,14.756z"/>
		<path d="M14.031,15.497c0.225,0.225,0.575,0.262,0.843,0.09c2.338-1.501,5.116-2.374,8.095-2.374s5.755,0.873,8.094,2.374
			c0.269,0.172,0.619,0.135,0.844-0.09l0.521-0.522c0.145-0.144,0.215-0.345,0.194-0.547c-0.021-0.203-0.132-0.385-0.302-0.496
			c-2.689-1.765-5.902-2.794-9.352-2.794c-3.449,0-6.662,1.029-9.352,2.794c-0.169,0.111-0.28,0.293-0.301,0.496
			c-0.021,0.202,0.05,0.403,0.193,0.547L14.031,15.497z"/>
		<circle cx="23.055" cy="23.838" r="1.54"/>
		<path d="M6.33,32.8h33.2c1.146,0,2.073-0.93,2.073-2.074V4.787c0.001-1.146-0.927-2.075-2.072-2.075H6.33
			c-1.146,0-2.075,0.929-2.075,2.075v25.938C4.255,31.87,5.184,32.8,6.33,32.8z M7.368,6.429c0-0.334,0.271-0.604,0.604-0.604
			h29.916c0.334,0,0.605,0.271,0.605,0.604v22.653c0,0.334-0.271,0.604-0.605,0.604H7.972c-0.333,0-0.604-0.271-0.604-0.604V6.429z"
			/>
		<path d="M45.754,40.371l-1.556-4.149c-0.305-0.811-1.078-1.347-1.943-1.347H3.631c-0.866,0-1.64,0.536-1.943,1.347l-1.556,4.149
			c-0.239,0.638-0.15,1.351,0.238,1.911c0.387,0.559,1.024,0.893,1.706,0.893h41.735c0.682,0,1.318-0.334,1.706-0.893
			C45.905,41.722,45.993,41.009,45.754,40.371z"/>
	</g>
</g>
<g>
</g>
<g>
</g>
<g>
</g>
<g>
</g>
<g>
</g>
<g>
</g>
<g>
</g>
<g>
</g>
<g>
</g>
<g>
</g>
<g>
</g>
<g>
</g>
<g>
</g>
<g>
</g>
<g>
</g>
</svg>
