<?xml version="1.0" encoding="iso-8859-1"?>
<!-- Generator: Adobe Illustrator 18.1.1, SVG Export Plug-In . SVG Version: 6.00 Build 0)  -->
<svg version="1.1" id="Capa_1" xmlns="http://www.w3.org/2000/svg" xmlns:xlink="http://www.w3.org/1999/xlink" x="0px" y="0px"
	 viewBox="0 0 501.809 501.809" style="enable-background:new 0 0 501.809 501.809;" xml:space="preserve">
<g>
	<g>
		<path style="fill:#010002;" d="M470.1,84.456L380.686,3.17c-0.073-0.065-0.171-0.081-0.244-0.146
			c-1.138-0.984-2.398-1.731-3.731-2.227c-0.163-0.057-0.333-0.098-0.496-0.154c-1.105-0.358-2.26-0.553-3.406-0.585
			C372.695,0.049,372.598,0,372.484,0H39.895H27.702v12.193v388.001c0,0.13,0.057,0.236,0.065,0.366
			c0.041,1.171,0.236,2.333,0.61,3.455c0.057,0.163,0.089,0.333,0.154,0.496c0.504,1.341,1.276,2.601,2.276,3.731
			c0.065,0.073,0.081,0.163,0.138,0.236l82.643,89.414c1.032,1.114,2.252,1.951,3.536,2.593v1.325h5.422h351.561V89.414h-0.87
			C472.579,87.585,471.636,85.854,470.1,84.456z M117.117,465.775l-65.029-70.361V41.626l65.029,65.029V465.775z M113.19,68.248
			L82.367,37.424L69.329,24.386h298.441l0.358,0.325l0,0l64.923,59.03l0,0l6.251,5.674h-11.404l-0.309,0.341l-0.374-0.341H134.357
			L113.19,68.248z M449.705,477.416h-85.277v-30.344c0-13.469-10.917-24.386-24.386-24.386h-86.846
			c-13.469,0-24.386,10.917-24.386,24.386v30.344h-87.309V113.8h308.211v363.616H449.705z"/>
		<path style="fill:#010002;" d="M169.497,204.507c3.479,0,6.292-3.146,6.292-7.023v-13.022c0-3.877,3.146-7.023,7.023-7.023h9.527
			c3.877,0,7.023,3.146,7.023,7.023v13.022c0,3.877,2.821,7.023,6.292,7.023s6.292-3.146,6.292-7.023v-46.585
			c0-3.877-2.821-7.023-6.292-7.023s-6.292,3.146-6.292,7.023v9.08c0,3.877-3.146,7.023-7.023,7.023h-9.527
			c-3.877,0-7.023-3.146-7.023-7.023v-9.08c0-3.877-2.821-7.023-6.292-7.023s-6.292,3.146-6.292,7.023v46.585
			C163.206,201.369,166.026,204.507,169.497,204.507z"/>
		<path style="fill:#010002;" d="M250.937,206.198c8.665,0,15.29-2.357,19.866-7.072c6.113-5.788,9.169-14.119,9.169-25.004
			c0-11.104-3.056-19.444-9.169-25.003c-4.576-4.715-11.201-7.072-19.866-7.072c-8.665,0-15.29,2.357-19.866,7.072
			c-6.145,5.568-9.21,13.9-9.21,25.003c0,10.884,3.073,19.224,9.21,25.004C235.647,203.84,242.272,206.198,250.937,206.198z
			 M238.923,158.32c2.991-3.699,6.991-5.552,12.014-5.552c5.023,0,8.998,1.861,11.949,5.576c2.951,3.715,4.422,8.974,4.422,15.769
			c0,6.828-1.471,12.095-4.422,15.794c-2.951,3.699-6.934,5.552-11.949,5.552s-9.023-1.853-12.014-5.552s-4.487-8.966-4.487-15.794
			C234.444,167.286,235.932,162.019,238.923,158.32z"/>
		<path style="fill:#010002;" d="M291.596,154.622h4.178c3.877,0,7.023,3.146,7.023,7.023V197.5c0,3.877,2.853,7.023,6.373,7.023
			c3.52,0,6.373-3.146,6.373-7.023v-35.855c0-3.877,3.146-7.023,7.023-7.023h4.097c3.877,0,7.023-2.406,7.023-5.365
			c0-2.959-3.146-5.365-7.023-5.365h-35.067c-3.877,0-7.023,2.406-7.023,5.365C284.573,152.216,287.719,154.622,291.596,154.622z"/>
		<path style="fill:#010002;" d="M348.48,204.507h31.905c3.877,0,7.023-2.439,7.023-5.446c0-3.008-3.146-5.446-7.023-5.446H360.86
			c-3.877,0-7.023-3.146-7.023-7.023v-1.553c0-3.877,3.146-7.023,7.023-7.023h15.412c3.877,0,7.023-2.357,7.023-5.267
			c0-2.91-3.146-5.267-7.023-5.267H360.86c-3.877,0-7.023-2.886-7.023-6.438c0-3.552,3.146-6.438,7.023-6.438h18.045
			c3.877,0,7.023-2.406,7.023-5.365c0-2.959-3.146-5.365-7.023-5.365H348.48c-3.877,0-7.023,3.146-7.023,7.023v46.585
			C341.457,201.369,344.603,204.507,348.48,204.507z"/>
		<path style="fill:#010002;" d="M404.291,204.507h28.897c3.877,0,7.023-2.439,7.023-5.446c0-3.008-3.146-5.446-7.023-5.446h-16.233
			c-3.877,0-7.023-3.146-7.023-7.023v-35.684c0-3.877-2.837-7.023-6.332-7.023c-3.495,0-6.332,3.146-6.332,7.023v46.585
			C397.276,201.369,400.414,204.507,404.291,204.507z"/>
		<path style="fill:#010002;" d="M227.527,226.511h-48.771c-4.487,0-8.129,3.642-8.129,8.129v50.877
			c0,4.487,3.642,8.129,8.129,8.129h48.771c4.487,0,8.129-3.642,8.129-8.129v-50.877
			C235.656,230.152,232.014,226.511,227.527,226.511z"/>
		<path style="fill:#010002;" d="M320.428,226.064l-48.763,0.837c-4.487,0.081-8.064,3.78-7.99,8.267l0.878,50.869
			c0.081,4.487,3.78,8.064,8.267,7.99l48.763-0.837c4.487-0.081,8.064-3.78,7.99-8.267l-0.878-50.869
			C328.614,229.567,324.915,225.991,320.428,226.064z"/>
		<path style="fill:#010002;" d="M414.484,226.511h-48.771c-4.487,0-8.129,3.642-8.129,8.129v50.877
			c0,4.487,3.642,8.129,8.129,8.129h48.771c4.487,0,8.129-3.642,8.129-8.129v-50.877
			C422.613,230.152,418.971,226.511,414.484,226.511z"/>
		<path style="fill:#010002;" d="M227.527,315.925h-48.771c-4.487,0-8.129,3.642-8.129,8.129v50.877
			c0,4.487,3.642,8.129,8.129,8.129h48.771c4.487,0,8.129-3.642,8.129-8.129v-50.877
			C235.656,319.567,232.014,315.925,227.527,315.925z"/>
		<path style="fill:#010002;" d="M320.428,315.478l-48.763,0.837c-4.487,0.081-8.064,3.78-7.99,8.267l0.878,50.869
			c0.081,4.487,3.78,8.064,8.267,7.99l48.763-0.837c4.487-0.081,8.064-3.78,7.99-8.267l-0.878-50.869
			C328.614,318.982,324.915,315.405,320.428,315.478z"/>
		<path style="fill:#010002;" d="M414.484,315.925h-48.771c-4.487,0-8.129,3.642-8.129,8.129v50.877
			c0,4.487,3.642,8.129,8.129,8.129h48.771c4.487,0,8.129-3.642,8.129-8.129v-50.877
			C422.613,319.567,418.971,315.925,414.484,315.925z"/>
	</g>
</g>
<g>
</g>
<g>
</g>
<g>
</g>
<g>
</g>
<g>
</g>
<g>
</g>
<g>
</g>
<g>
</g>
<g>
</g>
<g>
</g>
<g>
</g>
<g>
</g>
<g>
</g>
<g>
</g>
<g>
</g>
</svg>
