<?xml version="1.0" encoding="iso-8859-1"?>
<!-- Generator: Adobe Illustrator 16.0.0, SVG Export Plug-In . SVG Version: 6.00 Build 0)  -->
<!DOCTYPE svg PUBLIC "-//W3C//DTD SVG 1.1//EN" "http://www.w3.org/Graphics/SVG/1.1/DTD/svg11.dtd">
<svg version="1.1" id="Capa_1" xmlns="http://www.w3.org/2000/svg" xmlns:xlink="http://www.w3.org/1999/xlink" x="0px" y="0px"
	 width="567.375px" height="567.375px" viewBox="0 0 567.375 567.375" style="enable-background:new 0 0 567.375 567.375;"
	 xml:space="preserve">
<g>
	<g id="Layer_1_56_">
		<g>
			<path d="M566.1,139.613c0-43.35-34.425-77.775-77.774-77.775H77.775C34.425,61.838,0,96.263,0,139.613v177.225
				c0,43.35,34.425,77.775,77.775,77.775h150.45v36.975h-91.8c-7.65,0-14.025,6.375-14.025,14.025v45.9
				c0,7.648,6.375,14.023,14.025,14.023h293.25c7.65,0,14.025-6.375,14.025-14.023v-45.9c0-7.65-6.375-14.025-14.025-14.025h-90.525
				v-36.975H489.6c43.351,0,77.775-34.426,77.775-77.775L566.1,139.613L566.1,139.613z M517.649,316.838
				c0,15.301-12.75,29.324-29.324,29.324H77.775c-15.3,0-29.325-12.75-29.325-29.324V139.613c0-15.3,12.75-29.325,29.325-29.325
				h410.55c15.3,0,29.324,12.75,29.324,29.325V316.838L517.649,316.838z"/>
			<path d="M263.925,163.838c0-8.925-6.375-15.3-15.3-15.3H155.55c-8.925,0-15.3,6.375-15.3,15.3c0,8.925,6.375,15.3,15.3,15.3
				h28.05v110.924c0,10.201,7.65,17.85,17.85,17.85c10.2,0,17.85-7.648,17.85-17.85V179.138h28.05
				C257.55,177.863,263.925,171.488,263.925,163.838z"/>
			<path d="M399.075,148.538c-7.65,0-15.301,5.1-17.851,12.75l-15.3,54.825c-5.1,17.85-10.2,36.975-14.025,56.101h-1.274
				c-3.825-19.125-8.925-38.25-14.025-57.375l-15.3-53.55c-2.55-7.65-10.2-14.025-17.85-14.025c-6.375,0-11.476,2.55-15.301,7.65
				c-3.824,5.1-5.1,11.475-2.55,16.575l39.525,123.674c2.55,7.65,8.925,12.75,16.575,12.75h16.574c7.65,0,14.025-5.1,16.575-12.75
				l42.075-123.674c1.275-5.1,1.275-11.475-2.55-16.575C410.55,151.088,405.45,148.538,399.075,148.538z"/>
		</g>
	</g>
</g>
<g>
</g>
<g>
</g>
<g>
</g>
<g>
</g>
<g>
</g>
<g>
</g>
<g>
</g>
<g>
</g>
<g>
</g>
<g>
</g>
<g>
</g>
<g>
</g>
<g>
</g>
<g>
</g>
<g>
</g>
</svg>
