<?xml version="1.0" encoding="iso-8859-1"?>
<!-- Generator: Adobe Illustrator 16.0.0, SVG Export Plug-In . SVG Version: 6.00 Build 0)  -->
<!DOCTYPE svg PUBLIC "-//W3C//DTD SVG 1.1//EN" "http://www.w3.org/Graphics/SVG/1.1/DTD/svg11.dtd">
<svg version="1.1" id="Capa_1" xmlns="http://www.w3.org/2000/svg" xmlns:xlink="http://www.w3.org/1999/xlink" x="0px" y="0px"
	 width="46.054px" height="46.055px" viewBox="0 0 46.054 46.055" style="enable-background:new 0 0 46.054 46.055;"
	 xml:space="preserve">
<g>
	<g>
		<path d="M45.751,37.21l-1.673-6.479V9.089c0-2.9-2.374-5.284-5.275-5.284H7.254c-2.902,0-5.275,2.384-5.275,5.284v21.64
			l-1.676,6.48c-0.467,1.095-0.389,2.381,0.206,3.397c0.594,1.019,1.625,1.642,2.731,1.642h39.578c1.106,0,2.135-0.623,2.729-1.642
			C46.141,39.589,46.219,38.304,45.751,37.21z M6.042,9.089c0-0.667,0.543-1.221,1.211-1.221h31.551
			c0.668,0,1.212,0.554,1.212,1.221v21.64c0,0.668-0.544,1.197-1.212,1.197H7.254c-0.668,0-1.212-0.529-1.212-1.197V9.089z"/>
		<g>
			<g>
				<path d="M17.902,18.799c-0.366,0.228-0.609,0.609-0.658,1.038c-0.05,0.429,0.099,0.856,0.403,1.162l0.125,0.124
					c0.461,0.462,1.18,0.547,1.736,0.206c2.053-1.26,4.685-1.214,6.691,0.145c0.561,0.379,1.312,0.309,1.789-0.169l0.126-0.127
					c0.298-0.297,0.447-0.712,0.408-1.131c-0.039-0.418-0.263-0.798-0.61-1.035C24.915,16.965,20.967,16.897,17.902,18.799z"/>
			</g>
			<g>
				<path d="M13.592,14.676c-0.322,0.248-0.522,0.623-0.548,1.028c-0.027,0.405,0.122,0.805,0.41,1.092l0.125,0.125
					c0.501,0.501,1.294,0.552,1.856,0.12c4.38-3.357,10.551-3.303,14.865,0.178c0.561,0.453,1.375,0.411,1.884-0.099l0.6-0.6
					c0.155-0.154,0.239-0.366,0.232-0.585c-0.007-0.219-0.104-0.425-0.267-0.57C27.341,10.542,19.261,10.317,13.592,14.676z"/>
			</g>
			<circle cx="22.882" cy="25.716" r="2.688"/>
		</g>
	</g>
</g>
<g>
</g>
<g>
</g>
<g>
</g>
<g>
</g>
<g>
</g>
<g>
</g>
<g>
</g>
<g>
</g>
<g>
</g>
<g>
</g>
<g>
</g>
<g>
</g>
<g>
</g>
<g>
</g>
<g>
</g>
</svg>
